# xmcd
#
# Track frame offsets:
#	150
#	14412
#	33226
#	48777
#	67830
#	83725
#	99375
#	113634
#	132465
#	148027
#	167115
#	183066
#
# Disc length: 2651 seconds
#
# Revision: 1
# Processed by: cddbd v1.5.2PL0 Copyright (c) Steve Scherf et al.
# Submitted via: audiograbber 1.83.01
#
DISCID=910a590c
DTITLE=Chartbuster - CB20262
DYEAR=1900
DGENRE=Karaoke
TTITLE0=Montgomery Gentry - All Night Long (Vocal Version)
TTITLE1=Lonestar - Tell Her (Vocal Version)
TTITLE2=Andy Griggs - You Made Me That Way (Vocal Version)
TTITLE3=Billy Gilman - Oklahoma (Vocal Version)
TTITLE4=Ricky Van Shelton - Call Me Crazy (Vocal Version)
TTITLE5=Victor Sanz - Destination Unknown (Vocal Version)
TTITLE6=Montgomery Gentry - All Night Long
TTITLE7=Lonestar - Tell Her
TTITLE8=Andy Griggs - You Made Me That Way
TTITLE9=Billy Gilman - Oklahoma
TTITLE10=Ricky Van Shelton - Call Me Crazy
TTITLE11=Victor Sanz - Destination Unknown
EXTD=
EXTT0=
EXTT1=
EXTT2=
EXTT3=
EXTT4=
EXTT5=
EXTT6=
EXTT7=
EXTT8=
EXTT9=
EXTT10=
EXTT11=
PLAYORDER=
